<mxfile host="65bd71144e">
    <diagram id="fEH0jCM9jVXo35o1cyl-" name="Page-1">
        <mxGraphModel dx="1369" dy="393" grid="1" gridSize="10" guides="1" tooltips="1" connect="1" arrows="1" fold="1" page="1" pageScale="1" pageWidth="850" pageHeight="1100" math="0" shadow="0">
            <root>
                <mxCell id="0"/>
                <mxCell id="1" parent="0"/>
                <mxCell id="74" value="" style="shape=image;verticalLabelPosition=bottom;labelBackgroundColor=default;verticalAlign=top;aspect=fixed;imageAspect=0;image=data:image/png,iVBORw0KGgoAAAANSUhEUgAAASwAAABFCAYAAADw8dtTAAANVUlEQVR4nO3deXRN5/7H8fc+mSMSIiKSCDEkojFGai6aoubpmtoqtVpuDbdUVelqr/Jr+VVbqpS2qoYUTYuaLkJRkaJBQlQMkYgQEjKIjJKcff+Ic5rI4EgIe93va62sdbL3833Oc86Sz9n72c8+FJtRrqpll1ooNjpQEUKIp4sCaraeuyHJmGOpIy8sDTVHD6oklhDiKaMoKNY6sNRhrmYWgIVOwkoI8XRSVdQcPWqeHh0qElZCiKebqoIKuic9DiGEMJUElhBCMySwhBCaIYElhNAMCSwhhGZIYAkhNEMCSwihGRJYQgjNkMASQmiGBJYQQjMksIQQmiGBJYTQDAksIYRmSGAJITRDAksIoRkSWEIIzZDAEkJohgSWEEIzJLCEEJohgSWE0AwJLCGEZkhgCSE0QwJLCKEZ5k96AP+rhnccxOopy8jMzcLzn63IyMkss621hRUpa2NKbFdVlYycTGKT4tgfGcLyPauIv3WtWBtzM3PSA+NK7TevIJ/kOymERZ9k5b5A9p468FCvoaZdDSb2Gkcfvx40dmmIpbklN9ISORx1jO9/W8fRC8cfqj8hHkSxHlpXVSyUJz2O/zk73/+J7r6dAZj47TusPrChzLZFAysh5QY5ebkAKArUremCtYUVABk5mby8eEKx4CkaWEVrDf26OroYf1+5bx1vrZqFasJ/rNvaswVbZq7F2aG28bkzcjKp41AbRVFQVZVlu1fy7to5Jr0fQjyImqdKYD0JHk7uRC05Sr6+AAszc45eOM7z/x5YZvuigfXCnMH8cf5P4z5FUWjbqBWLXvuYNg1bkp51h2emdiT5TgpQPLDurwVwsLVn+oBJvD1gIjpFx8x1c/jqP9+VO/7qNnac+iIElxrOhEQdYfrqDzhzJQoAG0trxgW8wtyRs7CxtGb2j/NYvGPFw79JQtxHzVNlDutJGN1tBIqisOq3QBLTkmjv1RZv18YV6ktVVcKiwxny6RjSs+9gb1udIe37mVx/OyudDzfO55vg1QC8M3AyilL+B9gA/xdxqeHMnewMhi18zRhWANl3c1i2ayWzf5wHwIyBU7CxtK7AKxOiJAmsKqYoCqO7Dgdgw+FN/HJkGwCvdhtZqX6Tbt/kZMxpgAqF33d71wJQ294Jr7qNym3r4eQOQEziZdKz75Ta5uc/tgKF81xN3bwY1XkoWRuu8fu8HSXaOtjaczswjpS1Mdha2ZTYf3RBMFkbrjHo2b7Ftle3sePdQf/ixML9JK+5xNXvzrBpxho6NW1X5tgfpsYw5rX/Wk7DOvX5ftISLq+IIG3dZSIXhfLBsBkSxlVMAquKdfftjIeTO7FJcfx58SQbQ7cA8FKXoZibVe4aiKW5BQBZudkPXXvl1lXj45p2NUxq6+3WhAbOHqW2SclIxW9Gd9q+G8DF65fYe/ogqqrS2rM51W3sirXt1ep5LMzMsbawIqB512L7HGzt8fXwIb8gn/1nDhm3u9dy5eDcbcwZMRPPOg24nBSHgkLvNi+w58NfeLXbiBJjqkgNQCvP5oR+spsRnQZzNz+PnLs5NHJpwKwhU9kxe6NxDlE8fhJYVcxwJBUUWngEcuJSBNE3YqlTw5kXWwdUuF8fd2/8GrYC4PiliIeur1+7nvFxSkZquW23he0mIeUG1hZW7P7gZ4a071dq2EZdvcDZ+HNk5GRyKz2Z8NjTmJuZ09mnfbF2ffx6GB/39etZbF+npu3QKTqOXTxBelbh0ZxO0bFmytf4uHuz4fAmGkxoid+M53Ef78u0H95Hp+hYPG6+8UiwojUGjV08OXI+jCaT2uI12R/X15sxYcU08gry6eDtz/QBk8p9v8SjI4FVhRxs7Rng3xuAoD+2GLcHhf4KwJiHPC1UFAVXRxdeeW4Y22b9iJWFJRGxkew4vuehxzah51gAbqbf4uL1kksoirqTncHgT0cTf+saHk7uBL71DTFfn2TFhC/o69ezzNOkPRGFVy+7Nutk3GZuZk6vVs9zPiGatMzb9G4TgE75+59ll2YdAAiO+PvKZ1+/nnTw9uev+HP8c8XbxtNSVVX5Jng1m45ux9rCitFFjpgqUmOQkHKDlxa9wfXURAD0qp51vwexZOc3AIzvOQYznVm575l4NCSwqtCIToOxtrAiMu4sUVcvGLf/FLoZKDw1MiwTKMu+OVvI2nCNrA3XyFx/lehlJ/j2zcW4OdYl9Nwx+s9/Cb2qN2k8NpbWPFOvKV+9voA3XngVgM+2LjVpWUNk3Fn8ZnRnbtCnXE9NxMm+Fq92G8HP7/xA7PII5o2ajb1N9WI1wRH7Aejm+3dgdW7aDgdbe7aF7WJX+D5q2zvh37i1cX+Xe0dje+7VAgzt0B+An0K3kFeQX2Jsv53+HYB2TfwqVWOQfCel2HIQg6W7VgKF837ebk1K7BePniwcrUJju48CCv9oirp4PYbw2NO09mzBK88N44vtX5fZR/yta2TfzTH+7l7LFVsrG77du4apq2aX+/z75mwpd/+yXSuNf4SmyMjJZMGWL1m4dSkdvZ+lX9teDHq2D/Wc3Jg+YBJD2vej38ejiE0qXFZx/FIEqRlpNPdoRk27GqRmpBlPB3eeCMa1Zl1GdR5KX7+eHLt4guo2drRs4EtiWhKRV84an9fHzQuAuSNnMXfkrDLHV6dI+Fek5kES05JIyUjF0a4mDWrX42z8OZNrRcVIYFURXw8fWnk2R1VVgv74tcT+jYc309qzBaO7jSg3sF5bOrnYWqo3e43j87HzGOjfm9k/zit3wv3+sMsvyCM5I5VTl8+wIWQz4bGnK/TaCvQFhEQdISTqCO8FfkQ/v14sHvcJns71CZy6gk6zexvb/RZ5iH90GEDXZp349c+d9GnTk6TbNwmLDsfW8hw5ebn09evBhxvn097LHzOdGcGnDhY76nOyrwXA+YRo47xWaeJuxleqxhSJaTdxtKuJnXW1h6oTFSOBVUUMR1eKonBhaViZ7bxdG9Peq63Jt7Ws2h/ItP5v4l7LlSl93uD/tywps+39YVcROkWHr4cPANE3YkoEpKqqbD++m8TbSRycu53Wni1o2cCXU5fPALD31IHCwHqmI+cTomlYpz6rD2xAVVUyc7PYH3mIPm164Olc33g6eP8tQ4bQXbx9OWsObjRp3BWpMYXhimdmbtYj61OUTeawqoCluQUjOw8BCidwYxLjSv0xfPKPuRdupsjNu8snmxYBMK3/RBztaj76F1CEisr+j7ZydEEwXXw6lNkuLDqc3Ly7AMWuvBmOlro+04m+RU4HDbaH7QYKJ8m7NOtAgb6AfffmlwxiEi8DhcsNTFWRmgepUc0BN8e6AMQmXXlk/YqySWBVgX5te+FoV5OMnExaTX8O36kdS/2Z8v1MAIa27081K1uT+w88FMSlG5ext6nOzMFvPa6XARQeQR2OOgLAuICXy2zX1M0LKwtLABJSbxi3J6YlcTruL5q6NWF01xFk381hf+Tf66t2nAimQF/AsI4DadOwJWHR4aRl3i7W966T+wAY3XVEsXshi2rbqFWlawwcqtmXumxjdNfhKIpCYloS569dLLVWPFoSWFXAsFxh89Ed5X4rw7awXaRkpGJnXc14VcsU+QX5fLzpcwDG9xhDPSe3yg34AT4KWkhOXi79277IxrdX0qxe02L7n2vWgfXTvgXgzJUoTsacKrY/+N4pXpO6DTlwJqTYvFrynRSOnA/Dv3FrLMzMS/0GibUHNxJ3Mx5bKxuCpq/C07m+cV+Nag4sn/A5h/5vJ2O7v1SpGgMPJ3eWj/+82ILXF1sH8O/hhR8wy/f8QIG+4MFvnKg0mcN6zFwdXQhoUbh6e83Bsr+RAQpP79aH/MLk3m8wptso1h78yeTnCQr9lRkDJ+Pj7s0Hw2YwfvnUSo27POGxpxn+2WusnPglA/x7M8C/N5m5WdxKT8bZobZxHVZMYhyjFr1eYplEcMQBZgycAsCO48El+t9+fLdxcemeiJKBlZmbxT8WjmXbrPW0adiSyMWHibp6Ab1ej5drY+N6tC3HdlSqxiAt8zaD2vVhcLu+XEiIxqGavTHwDkcd5cudcnN3VZEjrMdsdNfh6BQdFxIuceR82ZPtBj/sXw9AB29/vFzLv6evKL2qZ+7PnwGFt/n4uHtXbMAm2nf6d1q83YVZgXMJPXeM7Nxs3BzrkpuXS+i5Y8xcN4dnZwZw6cblErWGVeuqqrIrfF+J/dvuzWMZVseX5q/4c/i/G8DCrV9xIeESjVw8qe9cj7/io3gv8CO6fdif21npla6BwqurXd7vw44Te3CrVRf3Wm7EJsUxf/NiBi542ThXJx4/+XoZIcowqvNQvp+0hMi4s7R7r8eDC8RjJV8vI4TQFAksIYRmSGAJITRDAksIoRky6S6E0ASZdBdCaIoElhBCMySwhBCaIYElhNAMCSwhhGZIYAkhNEMCSwihGRJYQgjNkMASQmiGBJYQQjMksIQQmiGBJYTQDAksIYRmSGAJITRDAksIoRkSWEIIzZDAEkJohg71wY2EEOKJU8FcsVKw7FILxUaHhJcQ4qmjgJqt525IMv8FV+FA/w+9xy8AAAAASUVORK5CYII=;" vertex="1" parent="1">
                    <mxGeometry x="460" y="60" width="300" height="69" as="geometry"/>
                </mxCell>
                <mxCell id="22" style="edgeStyle=none;html=1;" parent="1" source="74" target="4" edge="1">
                    <mxGeometry relative="1" as="geometry">
                        <mxPoint x="601.1408717624763" y="127" as="sourcePoint"/>
                    </mxGeometry>
                </mxCell>
                <mxCell id="47" value="" style="ellipse;whiteSpace=wrap;html=1;strokeColor=#7D7D7D;fontFamily=Consolas;fontSize=11;fillColor=none;dashed=1;strokeWidth=5;perimeterSpacing=2;" parent="1" vertex="1">
                    <mxGeometry x="-580" y="101.8" width="360" height="620" as="geometry"/>
                </mxCell>
                <mxCell id="54" value="&lt;font color=&quot;#195eff&quot; style=&quot;font-size: 25px;&quot;&gt;@threadify&lt;/font&gt;" style="rounded=1;whiteSpace=wrap;html=1;dashed=1;strokeColor=#001DBC;strokeWidth=2;fontFamily=Consolas;fontSize=25;fillColor=none;gradientDirection=radial;arcSize=33;fontColor=#ffffff;perimeterSpacing=0;verticalAlign=bottom;" parent="1" vertex="1">
                    <mxGeometry x="184" y="271.8" width="286" height="110" as="geometry"/>
                </mxCell>
                <mxCell id="7" value="" style="edgeStyle=none;html=1;" parent="1" source="4" target="6" edge="1">
                    <mxGeometry relative="1" as="geometry"/>
                </mxCell>
                <mxCell id="4" value="&lt;font face=&quot;Consolas&quot; style=&quot;font-size: 21px;&quot;&gt;Register&lt;/font&gt;" style="rounded=1;whiteSpace=wrap;html=1;fontSize=21;" parent="1" vertex="1">
                    <mxGeometry x="530" y="230" width="120" height="60" as="geometry"/>
                </mxCell>
                <mxCell id="10" style="edgeStyle=none;html=1;exitX=0;exitY=0.5;exitDx=0;exitDy=0;entryX=1;entryY=0.5;entryDx=0;entryDy=0;startArrow=none;" parent="1" source="29" target="9" edge="1">
                    <mxGeometry relative="1" as="geometry"/>
                </mxCell>
                <mxCell id="53" style="edgeStyle=none;html=1;exitX=0.5;exitY=1;exitDx=0;exitDy=0;fontFamily=Consolas;fontSize=19;" parent="1" source="6" target="31" edge="1">
                    <mxGeometry relative="1" as="geometry"/>
                </mxCell>
                <mxCell id="6" value="#scan_ARP" style="rounded=1;whiteSpace=wrap;html=1;fontFamily=Consolas;fillColor=#030303;fontColor=#ffffff;strokeColor=#005700;gradientColor=none;gradientDirection=radial;fontSize=19;" parent="1" vertex="1">
                    <mxGeometry x="420" y="387.7" width="300" height="90" as="geometry"/>
                </mxCell>
                <mxCell id="16" style="edgeStyle=none;html=1;" parent="1" source="9" target="15" edge="1">
                    <mxGeometry relative="1" as="geometry"/>
                </mxCell>
                <mxCell id="17" style="edgeStyle=none;html=1;" parent="1" source="9" target="14" edge="1">
                    <mxGeometry relative="1" as="geometry"/>
                </mxCell>
                <mxCell id="18" style="edgeStyle=none;html=1;" parent="1" source="9" target="13" edge="1">
                    <mxGeometry relative="1" as="geometry"/>
                </mxCell>
                <mxCell id="19" style="edgeStyle=none;html=1;" parent="1" source="9" target="12" edge="1">
                    <mxGeometry relative="1" as="geometry"/>
                </mxCell>
                <mxCell id="20" style="edgeStyle=none;html=1;" parent="1" source="9" target="11" edge="1">
                    <mxGeometry relative="1" as="geometry"/>
                </mxCell>
                <mxCell id="9" value="" style="image;html=1;image=img/lib/clip_art/computers/Network_128x128.png" parent="1" vertex="1">
                    <mxGeometry x="-280" y="311.8" width="130" height="130" as="geometry"/>
                </mxCell>
                <mxCell id="11" value="" style="points=[];aspect=fixed;html=1;align=center;shadow=0;dashed=0;image;image=img/lib/allied_telesis/computer_and_terminals/Personal_Computer.svg;" parent="1" vertex="1">
                    <mxGeometry x="-425.6" y="151.8" width="45.6" height="61.800000000000004" as="geometry"/>
                </mxCell>
                <mxCell id="12" value="" style="points=[];aspect=fixed;html=1;align=center;shadow=0;dashed=0;image;image=img/lib/allied_telesis/computer_and_terminals/Personal_Computer.svg;" parent="1" vertex="1">
                    <mxGeometry x="-530" y="260.8" width="45.6" height="61.800000000000004" as="geometry"/>
                </mxCell>
                <mxCell id="13" value="" style="points=[];aspect=fixed;html=1;align=center;shadow=0;dashed=0;image;image=img/lib/allied_telesis/computer_and_terminals/Personal_Computer.svg;" parent="1" vertex="1">
                    <mxGeometry x="-540" y="401.8" width="45.6" height="61.800000000000004" as="geometry"/>
                </mxCell>
                <mxCell id="14" value="" style="points=[];aspect=fixed;html=1;align=center;shadow=0;dashed=0;image;image=img/lib/allied_telesis/computer_and_terminals/Personal_Computer.svg;" parent="1" vertex="1">
                    <mxGeometry x="-494" y="531.8" width="45.6" height="61.800000000000004" as="geometry"/>
                </mxCell>
                <mxCell id="15" value="" style="points=[];aspect=fixed;html=1;align=center;shadow=0;dashed=0;image;image=img/lib/allied_telesis/computer_and_terminals/Personal_Computer.svg;" parent="1" vertex="1">
                    <mxGeometry x="-380" y="621.8" width="45.6" height="61.800000000000004" as="geometry"/>
                </mxCell>
                <mxCell id="23" value="" style="triangle;whiteSpace=wrap;html=1;fillColor=#00FF00;strokeColor=#000000;" parent="1" vertex="1">
                    <mxGeometry x="470" y="101.8" width="20" height="20" as="geometry"/>
                </mxCell>
                <mxCell id="33" style="edgeStyle=none;html=1;exitX=0.5;exitY=0;exitDx=0;exitDy=0;fontFamily=Consolas;" parent="1" source="31" target="6" edge="1">
                    <mxGeometry relative="1" as="geometry"/>
                </mxCell>
                <mxCell id="31" value="ipconfig()" style="rounded=1;whiteSpace=wrap;html=1;fontFamily=Consolas;fillColor=#a20025;fontColor=#ffffff;strokeColor=#6F0000;fontSize=23;" parent="1" vertex="1">
                    <mxGeometry x="490" y="581.8000000000001" width="270" height="60" as="geometry"/>
                </mxCell>
                <mxCell id="34" style="edgeStyle=none;html=1;" parent="1" source="9" edge="1">
                    <mxGeometry relative="1" as="geometry">
                        <mxPoint x="-336.8648799553323" y="306.8" as="sourcePoint"/>
                        <mxPoint x="-450" y="241.8" as="targetPoint"/>
                    </mxGeometry>
                </mxCell>
                <mxCell id="35" style="edgeStyle=none;html=1;" parent="1" source="9" edge="1">
                    <mxGeometry relative="1" as="geometry">
                        <mxPoint x="-370" y="314.0222222222223" as="sourcePoint"/>
                        <mxPoint x="-490" y="361.8" as="targetPoint"/>
                    </mxGeometry>
                </mxCell>
                <mxCell id="36" style="edgeStyle=none;html=1;" parent="1" source="9" edge="1">
                    <mxGeometry relative="1" as="geometry">
                        <mxPoint x="-360" y="324.0222222222223" as="sourcePoint"/>
                        <mxPoint x="-470" y="491.8" as="targetPoint"/>
                    </mxGeometry>
                </mxCell>
                <mxCell id="37" style="edgeStyle=none;html=1;" parent="1" source="9" edge="1">
                    <mxGeometry relative="1" as="geometry">
                        <mxPoint x="-350" y="334.0222222222223" as="sourcePoint"/>
                        <mxPoint x="-410" y="601.8" as="targetPoint"/>
                    </mxGeometry>
                </mxCell>
                <mxCell id="38" value="" style="edgeStyle=none;html=1;exitX=0;exitY=0.5;exitDx=0;exitDy=0;endArrow=none;startArrow=none;" parent="1" source="75" target="29" edge="1">
                    <mxGeometry relative="1" as="geometry">
                        <mxPoint x="430" y="365.30000000000007" as="sourcePoint"/>
                        <mxPoint x="170" y="244.39999999999995" as="targetPoint"/>
                    </mxGeometry>
                </mxCell>
                <mxCell id="29" value="&lt;font style=&quot;font-size: 18px;&quot;&gt;Ether&lt;/font&gt;" style="rounded=1;whiteSpace=wrap;html=1;fontFamily=Consolas;fillColor=#a20025;fontColor=#ffffff;strokeColor=#6F0000;" parent="1" vertex="1">
                    <mxGeometry x="-30" y="281.8" width="190" height="60" as="geometry"/>
                </mxCell>
                <mxCell id="39" value="&lt;font style=&quot;&quot;&gt;&lt;span style=&quot;font-size: 18px;&quot;&gt;ARP&lt;br&gt;&lt;/span&gt;&lt;/font&gt;&lt;font style=&quot;font-size: 11px;&quot;&gt;op=1 (who-has)&lt;br&gt;pdst=all_possible_addresses&lt;/font&gt;" style="rounded=1;whiteSpace=wrap;html=1;fontFamily=Consolas;fillColor=#60a917;fontColor=#ffffff;strokeColor=#2D7600;" parent="1" vertex="1">
                    <mxGeometry x="-20" y="221.8" width="170" height="60" as="geometry"/>
                </mxCell>
                <mxCell id="42" value="&lt;font style=&quot;&quot;&gt;&lt;span style=&quot;font-size: 18px;&quot;&gt;ARP&lt;br&gt;&lt;/span&gt;&lt;/font&gt;&lt;font style=&quot;font-size: 11px;&quot;&gt;op=2 (is-at)&lt;/font&gt;" style="rounded=1;whiteSpace=wrap;html=1;fontFamily=Consolas;fillColor=#488011;fontColor=#ffffff;strokeColor=#2D7600;" parent="1" vertex="1">
                    <mxGeometry x="-80" y="450" width="170" height="60" as="geometry"/>
                </mxCell>
                <mxCell id="44" value="" style="endArrow=classic;html=1;fontFamily=Consolas;fontSize=11;startArrow=none;" parent="1" source="77" target="48" edge="1">
                    <mxGeometry width="50" height="50" relative="1" as="geometry">
                        <mxPoint x="50" y="791.8" as="sourcePoint"/>
                        <mxPoint x="100" y="741.8" as="targetPoint"/>
                    </mxGeometry>
                </mxCell>
                <mxCell id="45" value="" style="endArrow=none;html=1;fontFamily=Consolas;fontSize=11;" parent="1" source="15" target="41" edge="1">
                    <mxGeometry width="50" height="50" relative="1" as="geometry">
                        <mxPoint x="-334.4000000000001" y="638.7755617977527" as="sourcePoint"/>
                        <mxPoint x="-190" y="601.8" as="targetPoint"/>
                    </mxGeometry>
                </mxCell>
                <mxCell id="41" value="&lt;font style=&quot;font-size: 18px;&quot;&gt;Ether&lt;/font&gt;" style="rounded=1;whiteSpace=wrap;html=1;fontFamily=Consolas;fillColor=#70001A;fontColor=#ffffff;strokeColor=#6F0000;" parent="1" vertex="1">
                    <mxGeometry x="-90" y="510" width="190" height="60" as="geometry"/>
                </mxCell>
                <mxCell id="48" value="Network Storage" style="rounded=1;whiteSpace=wrap;html=1;fontFamily=Consolas;fillColor=#a20025;fontColor=#ffffff;strokeColor=#6F0000;fontSize=22;" parent="1" vertex="1">
                    <mxGeometry x="230" y="682" width="270" height="60" as="geometry"/>
                </mxCell>
                <mxCell id="49" style="edgeStyle=none;html=1;fontFamily=Consolas;" parent="1" source="6" target="77" edge="1">
                    <mxGeometry relative="1" as="geometry">
                        <mxPoint x="537.5" y="1000" as="sourcePoint"/>
                        <mxPoint x="653.7711864406781" y="440" as="targetPoint"/>
                    </mxGeometry>
                </mxCell>
                <mxCell id="55" value="" style="endArrow=none;dashed=1;html=1;fontFamily=Consolas;fontSize=32;fontColor=#195EFF;entryX=0.5;entryY=1;entryDx=0;entryDy=0;" parent="1" target="59" edge="1">
                    <mxGeometry width="50" height="50" relative="1" as="geometry">
                        <mxPoint x="1076" y="890" as="sourcePoint"/>
                        <mxPoint x="1106" y="80" as="targetPoint"/>
                    </mxGeometry>
                </mxCell>
                <mxCell id="56" value="" style="points=[];aspect=fixed;html=1;align=center;shadow=0;dashed=0;image;image=img/lib/allied_telesis/computer_and_terminals/Personal_Computer.svg;" parent="1" vertex="1">
                    <mxGeometry x="1590" y="10" width="45.6" height="61.800000000000004" as="geometry"/>
                </mxCell>
                <mxCell id="57" value="" style="endArrow=none;dashed=1;html=1;fontFamily=Consolas;fontSize=32;fontColor=#195EFF;entryX=0.497;entryY=1.003;entryDx=0;entryDy=0;entryPerimeter=0;" parent="1" target="56" edge="1">
                    <mxGeometry width="50" height="50" relative="1" as="geometry">
                        <mxPoint x="1613" y="891.8" as="sourcePoint"/>
                        <mxPoint x="1491.8" y="101.8" as="targetPoint"/>
                    </mxGeometry>
                </mxCell>
                <mxCell id="59" value="" style="image;html=1;image=img/lib/clip_art/computers/Network_128x128.png" parent="1" vertex="1">
                    <mxGeometry x="1020" y="10" width="110" height="60" as="geometry"/>
                </mxCell>
                <mxCell id="63" value="" style="endArrow=classic;html=1;fontFamily=Consolas;fontSize=32;fontColor=#195EFF;strokeWidth=4;" parent="1" edge="1">
                    <mxGeometry width="50" height="50" relative="1" as="geometry">
                        <mxPoint x="1080" y="120" as="sourcePoint"/>
                        <mxPoint x="1610" y="290" as="targetPoint"/>
                    </mxGeometry>
                </mxCell>
                <mxCell id="60" value="&lt;font style=&quot;font-size: 18px;&quot;&gt;Ether&lt;/font&gt;" style="rounded=1;whiteSpace=wrap;html=1;fontFamily=Consolas;fillColor=#a20025;fontColor=#ffffff;strokeColor=#6F0000;horizontal=0;" parent="1" vertex="1">
                    <mxGeometry x="1240" y="170" width="30" height="60" as="geometry"/>
                </mxCell>
                <mxCell id="64" value="" style="endArrow=classic;html=1;fontFamily=Consolas;fontSize=32;fontColor=#195EFF;strokeWidth=4;" parent="1" edge="1">
                    <mxGeometry width="50" height="50" relative="1" as="geometry">
                        <mxPoint x="1610" y="440" as="sourcePoint"/>
                        <mxPoint x="1080" y="600" as="targetPoint"/>
                    </mxGeometry>
                </mxCell>
                <mxCell id="67" value="&lt;font style=&quot;font-size: 18px;&quot;&gt;Ether&lt;/font&gt;" style="rounded=1;whiteSpace=wrap;html=1;fontFamily=Consolas;fillColor=#70001A;fontColor=#ffffff;strokeColor=#6F0000;horizontal=0;" parent="1" vertex="1">
                    <mxGeometry x="1220" y="500" width="25" height="60" as="geometry"/>
                </mxCell>
                <mxCell id="68" value="Network Storage" style="shape=datastore;whiteSpace=wrap;html=1;strokeWidth=2;fontFamily=Consolas;fontSize=32;gradientDirection=radial;fillColor=#C056F5;" parent="1" vertex="1">
                    <mxGeometry x="890" y="790" width="160" height="180" as="geometry"/>
                </mxCell>
                <mxCell id="69" value="" style="endArrow=classic;html=1;fontFamily=Consolas;fontSize=32;fontColor=#195EFF;strokeWidth=4;startArrow=none;" parent="1" source="70" target="68" edge="1">
                    <mxGeometry width="50" height="50" relative="1" as="geometry">
                        <mxPoint x="1080" y="710" as="sourcePoint"/>
                        <mxPoint x="1090" y="610" as="targetPoint"/>
                    </mxGeometry>
                </mxCell>
                <mxCell id="71" value="" style="endArrow=none;html=1;fontFamily=Consolas;fontSize=32;fontColor=#195EFF;strokeWidth=4;" parent="1" target="70" edge="1">
                    <mxGeometry width="50" height="50" relative="1" as="geometry">
                        <mxPoint x="1080" y="660" as="sourcePoint"/>
                        <mxPoint x="1160" y="770" as="targetPoint"/>
                    </mxGeometry>
                </mxCell>
                <mxCell id="70" value="&lt;font style=&quot;&quot;&gt;&lt;span style=&quot;font-size: 18px;&quot;&gt;IP&lt;/span&gt;&lt;/font&gt;" style="rounded=1;whiteSpace=wrap;html=1;fontFamily=Consolas;fillColor=#488011;fontColor=#ffffff;strokeColor=#2D7600;" parent="1" vertex="1">
                    <mxGeometry x="1018" y="721.8" width="50" height="30" as="geometry"/>
                </mxCell>
                <mxCell id="73" value="" style="endArrow=none;html=1;strokeWidth=4;fontFamily=Consolas;fontSize=32;fontColor=#195EFF;" parent="1" edge="1">
                    <mxGeometry width="50" height="50" relative="1" as="geometry">
                        <mxPoint x="850" y="1080" as="sourcePoint"/>
                        <mxPoint x="850" y="20" as="targetPoint"/>
                    </mxGeometry>
                </mxCell>
                <mxCell id="76" value="" style="edgeStyle=none;html=1;entryX=1;entryY=0.5;entryDx=0;entryDy=0;endArrow=none;" edge="1" parent="1" source="6" target="75">
                    <mxGeometry relative="1" as="geometry">
                        <mxPoint x="430" y="365.3000000000002" as="sourcePoint"/>
                        <mxPoint x="170" y="244.39999999999986" as="targetPoint"/>
                    </mxGeometry>
                </mxCell>
                <mxCell id="75" value="can_connect_ARP_base" style="rounded=1;whiteSpace=wrap;html=1;fontFamily=Consolas;fillColor=#030303;fontColor=#ffffff;strokeColor=#005700;gradientColor=none;gradientDirection=radial;fontSize=19;" vertex="1" parent="1">
                    <mxGeometry x="212" y="290" width="230" height="52.6" as="geometry"/>
                </mxCell>
                <mxCell id="78" value="" style="endArrow=none;html=1;fontFamily=Consolas;fontSize=11;startArrow=none;" edge="1" parent="1" source="41" target="77">
                    <mxGeometry width="50" height="50" relative="1" as="geometry">
                        <mxPoint x="100" y="525.7385542168674" as="sourcePoint"/>
                        <mxPoint x="420" y="477.70000000000005" as="targetPoint"/>
                    </mxGeometry>
                </mxCell>
                <mxCell id="77" value="Sniffer" style="rounded=1;whiteSpace=wrap;html=1;fontFamily=Consolas;fillColor=#030303;fontColor=#ffffff;strokeColor=#005700;gradientColor=none;gradientDirection=radial;fontSize=19;" vertex="1" parent="1">
                    <mxGeometry x="212" y="510.00000000000006" width="230" height="52.6" as="geometry"/>
                </mxCell>
                <mxCell id="80" value="&lt;font style=&quot;&quot;&gt;&lt;span style=&quot;font-size: 18px;&quot;&gt;ARP&lt;br&gt;&lt;/span&gt;&lt;/font&gt;&lt;font style=&quot;font-size: 11px;&quot;&gt;op=1 (who-has)&lt;br&gt;pdst=all_possible_addresses&lt;/font&gt;" style="rounded=1;whiteSpace=wrap;html=1;fontFamily=Consolas;fillColor=#60a917;fontColor=#ffffff;strokeColor=#2D7600;" vertex="1" parent="1">
                    <mxGeometry x="1270" y="170.00000000000003" width="170" height="60" as="geometry"/>
                </mxCell>
                <mxCell id="81" value="&lt;font style=&quot;&quot;&gt;&lt;span style=&quot;font-size: 18px;&quot;&gt;ARP&lt;br&gt;&lt;/span&gt;&lt;/font&gt;&lt;font style=&quot;font-size: 11px;&quot;&gt;op=2 (is-at)&lt;/font&gt;" style="rounded=1;whiteSpace=wrap;html=1;fontFamily=Consolas;fillColor=#488011;fontColor=#ffffff;strokeColor=#2D7600;" vertex="1" parent="1">
                    <mxGeometry x="1245" y="500" width="170" height="60" as="geometry"/>
                </mxCell>
                <mxCell id="82" value="&lt;font style=&quot;font-size: 18px;&quot;&gt;MAC&lt;/font&gt;" style="rounded=1;whiteSpace=wrap;html=1;fontFamily=Consolas;fillColor=#70001A;fontColor=#ffffff;strokeColor=#6F0000;horizontal=1;" vertex="1" parent="1">
                    <mxGeometry x="1018" y="689.8" width="50" height="32" as="geometry"/>
                </mxCell>
            </root>
        </mxGraphModel>
    </diagram>
</mxfile>
